<svg id="Capa_1" data-name="Capa 1" xmlns="http://www.w3.org/2000/svg" viewBox="0 0 19.96 19.96"><title>icon</title><circle cx="9.98" cy="9.98" r="9.98" fill="#415870"/><path d="M13.83,11.87a4.34,4.34,0,0,1-3.9-7.75l.08,0a.22.22,0,0,0-.07-.41,5.59,5.59,0,0,0-5.61,8,5.59,5.59,0,0,0,7.49,2.59,5.5,5.5,0,0,0,2.29-2.08.21.21,0,0,0-.28-.3Z" transform="translate(-0.02 -0.02)" fill="#feaf62"/><path d="M8.63,4.17A1.32,1.32,0,0,1,7.31,5.49l-3.93,0a1.32,1.32,0,0,0-.94.39,1.31,1.31,0,0,0-.38.93A1.33,1.33,0,0,0,3.38,8.1H4.89a1.31,1.31,0,0,1,.93.38,1.32,1.32,0,0,1-.93,2.26H.28a.86.86,0,0,1-.23,0q0-.36,0-.72A9.94,9.94,0,0,1,3.07,2.82l4.24,0A1.32,1.32,0,0,1,8.63,4.17Z" transform="translate(-0.02 -0.02)" fill="#62788e"/><path d="M20,10A10,10,0,0,1,19,14.24a1.24,1.24,0,0,1-.83-.38,1.32,1.32,0,0,1-.39-.94A1.32,1.32,0,0,0,16.5,11.6H15a1.32,1.32,0,0,1-.94-.39,1.31,1.31,0,0,1-.38-.93A1.32,1.32,0,0,1,15,9H16.5a1.33,1.33,0,0,0,1.32-1.32A1.33,1.33,0,0,1,19.15,6.3h.12A9.91,9.91,0,0,1,20,10Z" transform="translate(-0.02 -0.02)" fill="#62788e"/><circle cx="13.88" cy="3.93" r="0.35" fill="#e8e4db"/><circle cx="12.35" cy="7.13" r="0.35" fill="#e8e4db"/><circle cx="15" cy="16.15" r="0.35" fill="#e8e4db"/><circle cx="9.84" cy="1.55" r="0.35" fill="#e8e4db"/><circle cx="9.05" cy="13.89" r="0.35" fill="#e8e4db"/><circle cx="4.06" cy="14.61" r="0.35" fill="#e8e4db"/><circle cx="6.21" cy="17.45" r="0.35" fill="#e8e4db"/><circle cx="12.34" cy="13.12" r="0.35" fill="#e8e4db"/><circle cx="6.87" cy="7.44" r="0.35" fill="#e8e4db"/><path d="M16.46,5.6a3.6,3.6,0,0,0,1.09-.24,3.61,3.61,0,0,0-1.09-.25A3.6,3.6,0,0,0,16.22,4,3.61,3.61,0,0,0,16,5.11a3.61,3.61,0,0,0-1.09.25A3.6,3.6,0,0,0,16,5.6a3.54,3.54,0,0,0,.25,1.09A3.53,3.53,0,0,0,16.46,5.6Z" transform="translate(-0.02 -0.02)" fill="#feaf62"/></svg>