<svg xmlns="http://www.w3.org/2000/svg" xmlns:xlink="http://www.w3.org/1999/xlink" viewBox="0 0 17.89 19.77"><defs><linearGradient id="New_Gradient_Swatch_1" x1="8.79" y1="1.67" x2="9.04" y2="2.32" gradientUnits="userSpaceOnUse"><stop offset="0" stop-color="#fff"/><stop offset="1" stop-color="#231f20" stop-opacity="0"/></linearGradient><linearGradient id="New_Gradient_Swatch_1-2" x1="6.51" y1="4.08" x2="7.12" y2="2.81" xlink:href="#New_Gradient_Swatch_1"/><linearGradient id="New_Gradient_Swatch_1-3" x1="6.84" y1="2.16" x2="6.85" y2="2.62" xlink:href="#New_Gradient_Swatch_1"/><linearGradient id="New_Gradient_Swatch_1-4" x1="10.36" y1="3.45" x2="10.79" y2="2.26" xlink:href="#New_Gradient_Swatch_1"/><linearGradient id="New_Gradient_Swatch_1-5" x1="10.18" y1="3.71" x2="9.88" y2="2.45" xlink:href="#New_Gradient_Swatch_1"/><linearGradient id="linear-gradient" x1="6.69" y1="4.33" x2="6.39" y2="3.07" xlink:href="#New_Gradient_Swatch_1"/></defs><title>wapuu</title><g><g id="Layer_1" data-name="Layer 1"><path d="M18.5,1.2a5.09,5.09,0,0,0-1,0H15.7c-.55,0-1.32,0-1.86,0a5.25,5.25,0,0,0-3-1A6.43,6.43,0,0,0,5.13,2.89a4.71,4.71,0,0,1-1.33.83.63.63,0,0,0-.51.69A.76.76,0,0,0,3.86,5l-.13.13a1.22,1.22,0,0,0-.3,1c0,.07,0,.13,0,.19a6.11,6.11,0,0,0-.84,3.1,5.66,5.66,0,0,0,.06.82,1.14,1.14,0,0,0-.26,0,1.39,1.39,0,0,0-1.07.49,1.58,1.58,0,0,0-.28,1.32,5.1,5.1,0,0,0,3,3,1.4,1.4,0,0,0,.34.05.9.9,0,0,0,.77-.39.85.85,0,0,0,.11-.26,6.13,6.13,0,0,0,2.84,1,1.16,1.16,0,0,0,1.19.84,1.74,1.74,0,0,0,1.4-.65h.09a6,6,0,0,0,.88-.06,5.61,5.61,0,0,1-3.8,1.91h0a1.64,1.64,0,0,1-1.49-.71,2.38,2.38,0,0,0-1.94-1.27,1.3,1.3,0,0,0-1.33,1.35,2,2,0,0,0,.66,1.38,5.6,5.6,0,0,0,3.79,1.56,4.71,4.71,0,0,0,1-.11,8.44,8.44,0,0,0,6-5.32c2.65-2,2.44-7.59,1.56-10.07-.06-.17-.13-.34-.2-.51a1.72,1.72,0,0,0,.32,0,2.32,2.32,0,0,0,.7-.1,2.51,2.51,0,0,0,2-2A.61.61,0,0,0,18.5,1.2Z" transform="translate(-1.05 -0.12)" fill-rule="evenodd"/><path d="M7,4.6H7a2.7,2.7,0,0,1-1.22.47.53.53,0,0,1-.35-.17L5.22,5A6.56,6.56,0,0,0,4.1,6.27a5.33,5.33,0,0,0-.73,1.52,5.74,5.74,0,0,0-.25,1.65,5.66,5.66,0,0,0,.72,2.75,4.36,4.36,0,0,0,7.39-3.14A4.36,4.36,0,0,0,7,4.6Z" transform="translate(-1.05 -0.12)" fill="#00709b" fill-rule="evenodd"/><path d="M14.12,7.65A6.51,6.51,0,0,0,9.56,4.21c-1.11.11-1.57-.1-1.75-.32l-.14,0A2.56,2.56,0,0,1,5.78,5.07a.54.54,0,0,1-.37-.19A5.75,5.75,0,0,0,3.12,9.44a5.64,5.64,0,0,0,5.4,5.63,10.18,10.18,0,0,0,2.14-2.64,2.78,2.78,0,0,1,3.52-1.38,5.7,5.7,0,0,0,.23-1.61A3.66,3.66,0,0,0,14.12,7.65Z" transform="translate(-1.05 -0.12)" fill="#005682" fill-rule="evenodd"/><path d="M4.19,12.73a5.58,5.58,0,0,0,4.33,2.34,2.23,2.23,0,0,0,.21-.19l-.05-.66a3.47,3.47,0,0,1-2-.15,8.13,8.13,0,0,1-2.19-1.42l-.27,0Z" transform="translate(-1.05 -0.12)" fill="#003e5f" fill-rule="evenodd"/><path d="M14.12,7.65A6.51,6.51,0,0,0,9.56,4.21c-1.11.11-1.57-.1-1.75-.32l-.14,0A1.64,1.64,0,0,1,7,4.59H7l.08.13a2.24,2.24,0,0,1,.65-.22c.21,0,.26.12.94.24s1.76,1.58,1.76,1.58,2.29.32,3,1.77a3.29,3.29,0,0,1,.11,2.77v0a2.91,2.91,0,0,1,.56.15,5.7,5.7,0,0,0,.23-1.61A3.66,3.66,0,0,0,14.12,7.65Z" transform="translate(-1.05 -0.12)" fill="#003e5f" fill-rule="evenodd"/><path d="M6.62,5.28C3.82,5.51,2,9.74,4.48,12S10.1,11.3,10,8.61A3.38,3.38,0,0,0,6.62,5.28ZM4,7.23C4.9,5.91,6.53,4.84,8.32,6.15c0,0-1.14.06-.32,1.28A2.2,2.2,0,0,1,8.12,9.7c-.12.53-.16.69-.28,1.24A25.61,25.61,0,0,1,6.5,7.1c.31,0,.66-.09.48-.29,0,0-1.65.14-1.67.14s-.14.17-.14.17,0,.11.36.09a9.18,9.18,0,0,0,.36,1.46,11.35,11.35,0,0,0-.36,2.51A8.53,8.53,0,0,1,4.44,7.4c.1-.07.24,0,.34-.14s.09-.21,0-.23c-.28-.06-.49.14-.75.2Zm3.9,4.6C8.24,10.54,8.74,9.3,9,8a2.68,2.68,0,0,0,0-1.07,3.61,3.61,0,0,1-1.11,4.9Zm-2.56.38a3.34,3.34,0,0,1-1.6-4.46,7.6,7.6,0,0,0,1.6,4.46Zm1.11.19a2.6,2.6,0,0,1-.68-.05,8.9,8.9,0,0,1,.25-3.2,23.31,23.31,0,0,0,1.39,3A2.77,2.77,0,0,1,6.49,12.4Z" transform="translate(-1.05 -0.12)" fill="#fff" fill-rule="evenodd"/><path d="M12.81,14.9C11.29,17.71,7.19,19.11,6,17.1c-.78-1.31-2.34-1.38-2.38-.14s2.54,2.89,4.86,2.34a7.89,7.89,0,0,0,5.68-5.14l-1.35.74Zm.78-13.31c-.63-.05-.14.43.07.61s1.74,1.56,3.16,1.13,1.85-1.6,1.56-1.67-3.47,0-4.79-.07ZM5.11,4.5c-1.38.39-1.53-.25-1.21-.32a4.65,4.65,0,0,0,1.6-1Z" transform="translate(-1.05 -0.12)" fill="#ff8700" fill-rule="evenodd"/><path d="M5.11,16.24c-.72-.37-1.46-.13-1.49.72,0,1.1,2.54,2.89,4.86,2.34A8.11,8.11,0,0,0,14,14.79l-.07-.26c-.53.87-2.07,4.19-6.08,4.44-1.86.11-3.81-1.24-3.68-2A.72.72,0,0,1,5,16.38Z" transform="translate(-1.05 -0.12)" fill="#d36300" fill-rule="evenodd"/><path d="M17.64,1.64V1.8s-.81,2.26-4.18-.05l-.16-.11c-.11.13.21.42.36.56s1.74,1.56,3.16,1.13,1.85-1.6,1.56-1.67A5.72,5.72,0,0,0,17.64,1.64Z" transform="translate(-1.05 -0.12)" fill="#ce6e00" fill-rule="evenodd"/><path d="M15.69,4.54A8.08,8.08,0,0,0,15,3.09a6.45,6.45,0,0,1-1.34-.89c-.21-.18-.7-.66-.07-.61h.07a4.76,4.76,0,0,0-2.83-1A5.94,5.94,0,0,0,5.5,3.19c-.69,1.1-.18,1.7.14,1.85A2.64,2.64,0,0,0,7.7,3.93a2.89,2.89,0,0,0,2.65.1l1.26.25h0l-.17,0-.12,0h0a5.25,5.25,0,0,0-.56,0c1.25.27,4.35,1.26,3.34,3.44,0,0,0,.06,0,.09a11.67,11.67,0,0,1,.25,1.54V9.5c0,.19,0,.3,0,.46a4.26,4.26,0,0,1-.23,1.09A2.69,2.69,0,0,1,15.22,13C16.66,10.64,16.37,6.47,15.69,4.54Z" transform="translate(-1.05 -0.12)" fill="#ffd100" fill-rule="evenodd"/><path d="M14.25,8.16a10.7,10.7,0,0,1,.16,1.12V9.5c0,.19,0,.3,0,.46a4.26,4.26,0,0,1-.23,1.09.31.31,0,0,1,.11.09l.51.34a10.1,10.1,0,0,0-.14-3.17c-.05-.18.3,0,.26-.05s-.23-.33-.23-.33l-.22-.08Z" transform="translate(-1.05 -0.12)" fill="#d69300" fill-rule="evenodd"/><path d="M15.69,4.54A8.08,8.08,0,0,0,15,3.09a3.66,3.66,0,0,1-.52-.28l-.4-.21h-.19c.43-.09,2.73,3.94,1.72,9.17.05.18-.41,1-.39,1.24C16.66,10.64,16.37,6.47,15.69,4.54Z" transform="translate(-1.05 -0.12)" fill="#d69300" fill-rule="evenodd"/><path d="M3.19,11a1,1,0,0,0-1.63,1,4.79,4.79,0,0,0,2.63,2.66c.89.21.71-.75.57-1.07A10.1,10.1,0,0,0,3.19,11Z" transform="translate(-1.05 -0.12)" fill="#ffd100" fill-rule="evenodd"/><path d="M1.93,10.87A1,1,0,0,0,1.56,12a4.79,4.79,0,0,0,2.63,2.66c.89.21.71-.75.57-1.07,0-.07-.08-.17-.13-.28l-.17,0s.34.95-.26.92a4.26,4.26,0,0,1-2.22-2,1.52,1.52,0,0,1,0-1.14Z" transform="translate(-1.05 -0.12)" fill="#d69300" fill-rule="evenodd"/><path d="M14.11,11a2.81,2.81,0,0,0-3.45,1.39c-.28-.72-1.22-2.09-2-1.56s-.28,1.77-.14,2.69-.36,2.35.81,2.35a1.27,1.27,0,0,0,1.16-.67,5.77,5.77,0,0,0,3.67-1.07,4.19,4.19,0,0,0,1.39-1.8A6.2,6.2,0,0,0,14.11,11Z" transform="translate(-1.05 -0.12)" fill="#ffd100" fill-rule="evenodd"/><path d="M8.21,11.94a16.37,16.37,0,0,0,.31,1.61c.14.93-.36,2.35.81,2.35a1.3,1.3,0,0,0,1.15-.65l0-.66s-.4.78-1.1.64-.51-.52-.52-1.4a5.88,5.88,0,0,0-.48-2H8.28Z" transform="translate(-1.05 -0.12)" fill="#d69300" fill-rule="evenodd"/><path d="M12.75,10.88a3.38,3.38,0,0,0-.86.3,4.76,4.76,0,0,0-1.1,1h0l0,.57.32.47c-.06-1.6,2.31-2.54,3.43-1.66v-.19l-.17-.18a4.92,4.92,0,0,0-1.46-.31Z" transform="translate(-1.05 -0.12)" fill="#d69300" fill-rule="evenodd"/><path d="M5,5c-.35-.15-1.24.46-1.14,1s.75.57,1.18.15S5.38,5.17,5,5Z" transform="translate(-1.05 -0.12)" fill="#ffd100" fill-rule="evenodd"/><path d="M11.61,4.28h0A4.06,4.06,0,0,0,8.31,5c-.89.78-.29,1.34.39,1.41s2-.53,3-.31,1.35.59,2.45,1.58v0C15.73,5.65,13.14,4.67,11.61,4.28Z" transform="translate(-1.05 -0.12)" fill="#ffd100" fill-rule="evenodd"/><path d="M9.07,4.56A2.9,2.9,0,0,0,8.31,5c-.89.78-.29,1.34.39,1.41s2-.53,3-.31a3.47,3.47,0,0,1,1.87,1.05.59.59,0,0,0-.14-.36A3.44,3.44,0,0,0,9.7,6c-1.24.4-2.1-.13-1.08-1l.66-.47Z" transform="translate(-1.05 -0.12)" fill="#d69300" fill-rule="evenodd"/><path d="M15.25,3.2a3.36,3.36,0,0,1-.54-.26,7.08,7.08,0,0,1,.83,1.65c.81,2.3,1,7.71-1.47,9.43a5.57,5.57,0,0,1-3.62,1.05.15.15,0,0,0-.17.15.16.16,0,0,0,.14.17l.4,0a6.06,6.06,0,0,0,3.43-1.12c1.51-1,2-3.15,2.11-4.73a13.47,13.47,0,0,0-.52-5.08,7.91,7.91,0,0,0-.59-1.28Zm-4.66.92a3.59,3.59,0,0,1-2.84,0,2.66,2.66,0,0,1-2.17,1,1,1,0,0,1-.53-.63A1.71,1.71,0,0,1,5.37,3.1,6.08,6.08,0,0,1,10.83.44a5,5,0,0,1,3.11,1.17l-.35,0h-.2A4.66,4.66,0,0,0,10.82.76,5.76,5.76,0,0,0,5.64,3.27a1.51,1.51,0,0,0-.29,1.19.73.73,0,0,0,.36.43,2.6,2.6,0,0,0,1.85-1,.16.16,0,0,1,.1-.08.2.2,0,0,1,.13,0,3.15,3.15,0,0,0,2.7,0,.16.16,0,1,1,.1.3Z" transform="translate(-1.05 -0.12)" fill-rule="evenodd"/><path d="M7.6,19.56A5.38,5.38,0,0,1,4.36,18.4,2.07,2.07,0,0,1,3.46,17a1,1,0,0,1,.73-1A1.91,1.91,0,0,1,6.14,17,2,2,0,0,0,8,17.89a6,6,0,0,0,4.71-3.06.16.16,0,0,1,.22-.07A.15.15,0,0,1,13,15a6.37,6.37,0,0,1-5,3.23,2.28,2.28,0,0,1-2.11-1,1.58,1.58,0,0,0-1.59-.92.67.67,0,0,0-.49.71,1.75,1.75,0,0,0,.79,1.18,4.79,4.79,0,0,0,3.88,1,7.7,7.7,0,0,0,5.56-5A.16.16,0,0,1,14.2,14a.16.16,0,0,1,.12.2,8,8,0,0,1-5.8,5.26A4.18,4.18,0,0,1,7.6,19.56Z" transform="translate(-1.05 -0.12)" fill-rule="evenodd"/><path d="M14.52,8.14a.15.15,0,0,1-.11,0L14.28,8a5.68,5.68,0,0,0-2.6-1.69,4.54,4.54,0,0,0-1.85.17,3.73,3.73,0,0,1-1.15.15A1.06,1.06,0,0,1,7.73,6c-.07-.23-.05-.61.47-1.06a4.3,4.3,0,0,1,4.1-.6.15.15,0,0,1,.09.21.16.16,0,0,1-.2.09,4,4,0,0,0-3.78.53c-.31.27-.44.53-.37.74a.75.75,0,0,0,.67.41,4.24,4.24,0,0,0,1-.15,4.94,4.94,0,0,1,2-.17A5.9,5.9,0,0,1,14.5,7.75l.12.11a.16.16,0,0,1-.1.28Z" transform="translate(-1.05 -0.12)" fill-rule="evenodd"/><path d="M13.46,1.75a1.23,1.23,0,0,0,.31.32l0,0a3.91,3.91,0,0,0,2.45,1.14h0a1.81,1.81,0,0,0,.52-.07,2.36,2.36,0,0,0,1.44-1.09.69.69,0,0,0,.09-.28H15.69c-.63,0-1.54,0-2.11-.05Zm2.8,1.82h0A4.19,4.19,0,0,1,13.6,2.35l0,0c-.52-.44-.45-.64-.43-.7s.17-.19.37-.19h.11c.55.05,1.45.05,2.08.05h1.8a5.64,5.64,0,0,1,.93,0,.29.29,0,0,1,.21.29,2.25,2.25,0,0,1-1.76,1.68A2.1,2.1,0,0,1,16.26,3.57Z" transform="translate(-1.05 -0.12)" fill-rule="evenodd"/><path d="M9,11a.46.46,0,0,0-.25.08c-.5.34-.4.94-.19,1.83.05.22.11.45.14.66a5.13,5.13,0,0,1,0,.88c0,.46,0,.94.17,1.15a.55.55,0,0,0,.41.13,1.26,1.26,0,0,0,1.18-1.06v0a2.92,2.92,0,0,0,0-1.94C10.36,12.08,9.6,11,9,11Zm.3,5.16a.94.94,0,0,1-.72-.27,2,2,0,0,1-.28-1.45,6.82,6.82,0,0,0,0-.8c0-.2-.08-.41-.13-.63-.2-.82-.43-1.76.36-2.28A.88.88,0,0,1,9,10.53c.92,0,1.74,1.45,1.89,2a3.31,3.31,0,0,1,0,2.16A1.66,1.66,0,0,1,9.33,16.11Z" transform="translate(-1.05 -0.12)" fill-rule="evenodd"/><path d="M12.79,10.74a2.7,2.7,0,0,0-2.21,1.54.15.15,0,0,0,.07.21l.07,0a.17.17,0,0,0,.14-.09,2.39,2.39,0,0,1,2-1.36,2,2,0,0,1,1.68.5.16.16,0,0,0,.22,0,.17.17,0,0,0,0-.23,1.31,1.31,0,0,0-.4-.33,6.1,6.1,0,0,0,.22-1.59,5.72,5.72,0,0,0-.3-1.84.16.16,0,0,0-.2-.1.16.16,0,0,0-.1.2,5.37,5.37,0,0,1,.28,1.74,5.46,5.46,0,0,1-.2,1.45A3,3,0,0,0,12.79,10.74Z" transform="translate(-1.05 -0.12)" fill-rule="evenodd"/><path d="M2.44,10.88a.72.72,0,0,0-.57.26.9.9,0,0,0-.15.78,4.62,4.62,0,0,0,2.51,2.54l.19,0a.25.25,0,0,0,.23-.1,1,1,0,0,0,0-.77,10.32,10.32,0,0,0-1.51-2.5,1.1,1.1,0,0,0-.66-.24Zm2,3.93h0a.93.93,0,0,1-.27,0A4.86,4.86,0,0,1,1.41,12a1.21,1.21,0,0,1,.21-1.05,1,1,0,0,1,.82-.38,1.37,1.37,0,0,1,.85.31A10.37,10.37,0,0,1,4.9,13.49a1.3,1.3,0,0,1,0,1.07A.56.56,0,0,1,4.42,14.81Z" transform="translate(-1.05 -0.12)" fill-rule="evenodd"/><path d="M4.92,5.17a1.14,1.14,0,0,0-.7.41A.63.63,0,0,0,4.06,6a.34.34,0,0,0,.36.32A.81.81,0,0,0,5,6.09a.71.71,0,0,0,.22-.63A.38.38,0,0,0,5,5.18Zm-.5,1.5h0a.65.65,0,0,1-.67-.58A.88.88,0,0,1,4,5.37a1.39,1.39,0,0,1,.94-.52.53.53,0,0,1,.18,0,.67.67,0,0,1,.39.51,1,1,0,0,1-.3.92A1.12,1.12,0,0,1,4.42,6.67Z" transform="translate(-1.05 -0.12)" fill-rule="evenodd"/><path d="M4.94,2.61a1.07,1.07,0,0,1-.06-.32s0-.06.13-.11A5.47,5.47,0,0,1,6.26,2a13.73,13.73,0,0,0,1.52-.11c.28-.07,1.22-.36,1.69-.48A17,17,0,0,1,11.23,1a2,2,0,0,0,.63-.15s0,.17.06.27,0,.25,0,.25-.29.12-.32.24,0,.71-.08,1.05a1.18,1.18,0,0,1-.84.83,2.69,2.69,0,0,1-1.61.2,1.6,1.6,0,0,1-.73-.63c.1-.12.05-.28-.16-.26-.11-.2-.2-.34-.33-.36s-.22,0-.23.06,0,.14,0,.3c0,0,0,.06,0,.08-.27.11-.53.38-.15.54a.93.93,0,0,1-.15.33,1.09,1.09,0,0,1-.7.42,1.52,1.52,0,0,1-1-.21,1.48,1.48,0,0,1-.44-.77c-.11-.29-.12-.46-.16-.51l-.09-.1Zm1.89-.48a6.93,6.93,0,0,0-1.32.13c-.1,0-.23.1-.25.19s0,.14.07.53a1.75,1.75,0,0,0,.41.83,1.25,1.25,0,0,0,1,.14.72.72,0,0,0,.49-.59,2.66,2.66,0,0,0,0-1c-.08-.16-.18-.17-.43-.19ZM9.11,3.45a1.49,1.49,0,0,0,1.07,0,3,3,0,0,0,.65-.24.72.72,0,0,0,.46-.52,2.33,2.33,0,0,0,0-1,.46.46,0,0,0-.34-.31,2.69,2.69,0,0,0-.92.08A14.33,14.33,0,0,0,8.4,1.9a.23.23,0,0,0-.11.31c.06.15.22.14.36.24a.72.72,0,0,1,.18.47A.77.77,0,0,0,9.11,3.45Z" transform="translate(-1.05 -0.12)" fill-rule="evenodd"/><path d="M8.67,11.34a.41.41,0,0,1,.46-.21c.34.07.41.2.42.28s-.37-.08-.53,0-.24.2-.33.16S8.67,11.34,8.67,11.34Z" transform="translate(-1.05 -0.12)" fill="#fff" fill-rule="evenodd"/><path d="M2,11.22A.34.34,0,0,1,2.35,11c.3,0,.38.1.41.17s-.33,0-.46.07-.17.2-.25.18S2,11.22,2,11.22Z" transform="translate(-1.05 -0.12)" fill="#fff" fill-rule="evenodd"/><path d="M4.34,4.79a.85.85,0,0,1-.63-.2.36.36,0,0,1-.1-.34A.35.35,0,0,1,3.87,4a4.7,4.7,0,0,0,1.52-1,.16.16,0,0,1,.22.22,4.9,4.9,0,0,1-1.67,1h0l.05,0c.06,0,.34.17,1.1,0a.15.15,0,0,1,.19.11.16.16,0,0,1-.11.2A3.24,3.24,0,0,1,4.34,4.79Z" transform="translate(-1.05 -0.12)" fill-rule="evenodd"/><path d="M8.16,2.83c.32,0,.26.34-.05.53a.55.55,0,0,1-.58.09c-.27-.06-.33-.31-.06-.47A1.24,1.24,0,0,1,8.16,2.83Z" transform="translate(-1.05 -0.12)" fill-rule="evenodd"/><path d="M7.84,3.49a1,1,0,0,1-.31,0c-.27-.06-.33-.31-.06-.47l.16-.08s-.21.13-.23.3S7.72,3.48,7.84,3.49Z" transform="translate(-1.05 -0.12)" fill="#1a1a1a" fill-rule="evenodd"/><path d="M5,2.26a.05.05,0,0,0,0,0,.66.66,0,0,0,0,.13.24.24,0,0,0,.08.15L5,2.53a.23.23,0,0,1,0-.1.76.76,0,0,1,0-.14A.06.06,0,0,1,5,2.26Z" transform="translate(-1.05 -0.12)" fill="#fff" fill-rule="evenodd"/><path d="M10,2a.32.32,0,0,0-.32.32.33.33,0,0,0,.32.32.32.32,0,0,0,.32-.32A.32.32,0,0,0,10,2Z" transform="translate(-1.05 -0.12)" fill-rule="evenodd"/><path d="M8.5,2.09a.2.2,0,0,1,.15-.17,2.91,2.91,0,0,1,.64-.13c.11,0,0,.24-.13.3a2.27,2.27,0,0,1-.59.13C8.46,2.21,8.5,2.09,8.5,2.09Z" transform="translate(-1.05 -0.12)" fill-rule="evenodd" fill="url(#New_Gradient_Swatch_1)" style="mix-blend-mode:screen"/><path d="M9.39,3.62A.71.71,0,0,1,9,3.45l-.09-.08-.08-.08L9,3.46A.61.61,0,0,0,9.39,3.62Z" transform="translate(-1.05 -0.12)" fill="#fff" fill-rule="evenodd"/><path d="M8.63,1.79A1.13,1.13,0,0,0,8.25,2a.1.1,0,0,0,0,.08.53.53,0,0,0,0,.12c0,.2.13.24.21.27s.11,0,.13.08a.46.46,0,0,0-.13-.08c-.09,0-.18-.06-.23-.27A.57.57,0,0,1,8.2,2a.25.25,0,0,1,0-.09A1.13,1.13,0,0,1,8.63,1.79Z" transform="translate(-1.05 -0.12)" fill="#fff" fill-rule="evenodd"/><path d="M7.67,3,7.9,3s.17,0,.15-.08S7.36,3,7.67,3Z" transform="translate(-1.05 -0.12)" fill="#666" fill-rule="evenodd"/><path d="M6.35,2.83A.33.33,0,0,0,6,3.15a.32.32,0,0,0,.32.32.32.32,0,0,0,.32-.32A.32.32,0,0,0,6.35,2.83Z" transform="translate(-1.05 -0.12)" fill-rule="evenodd"/><path d="M7.24,2.28s0,0,0,0a1.71,1.71,0,0,1,0,.51L6.73,4,6.46,4,7.2,2.29Z" transform="translate(-1.05 -0.12)" fill-rule="evenodd" fill="url(#New_Gradient_Swatch_1-2)" style="mix-blend-mode:screen"/><path d="M6.53,2.36a.12.12,0,0,1,.12-.1,2.27,2.27,0,0,1,.47,0c.08,0,0,.19-.09.2a1.51,1.51,0,0,1-.44,0A.09.09,0,0,1,6.53,2.36Z" transform="translate(-1.05 -0.12)" fill-rule="evenodd" fill="url(#New_Gradient_Swatch_1-3)" style="mix-blend-mode:screen"/><path d="M6,4a.54.54,0,0,1-.33-.17l-.06-.08-.05-.06a.57.57,0,0,0,.11.14A.48.48,0,0,0,6,4Z" transform="translate(-1.05 -0.12)" fill="#fff" fill-rule="evenodd"/><path d="M7.2,3.55A.48.48,0,0,1,7,3.87l-.08.06L6.83,4,7,3.88A.45.45,0,0,0,7.2,3.55Z" transform="translate(-1.05 -0.12)" fill="#fff" fill-rule="evenodd"/><path d="M7.34,2.39a.33.33,0,0,0-.29-.3A.29.29,0,0,1,7.34,2.39Z" transform="translate(-1.05 -0.12)" fill="#fff" fill-rule="evenodd"/><path d="M10.88,1.4h0a.49.49,0,0,1,.32.25L10.47,3.4l-.29.08-.06,0Z" transform="translate(-1.05 -0.12)" fill-rule="evenodd" fill="url(#New_Gradient_Swatch_1-4)" style="mix-blend-mode:screen"/><path d="M11.86.88,13.57.56c.27,0,.41,0,.5.16a2.53,2.53,0,0,1,.21.59c.05.22,0,.28,0,.32s-.15,0-.19,0S14,1.42,14,1.26a1.25,1.25,0,0,0-.14-.42s-.15,0-.22.1-.07.1-.22.14-.67.11-1,.19l-.51.13s0-.12,0-.23S11.86.88,11.86.88Z" transform="translate(-1.05 -0.12)" fill-rule="evenodd"/><path d="M10.29,1.38a1.57,1.57,0,0,1,.76,0c.26.1.3.62.3.62,0-.22-.08-.55-.29-.64A1.41,1.41,0,0,0,10.29,1.38Z" transform="translate(-1.05 -0.12)" fill="#fff" fill-rule="evenodd"/><path d="M12.08,1a3.39,3.39,0,0,1,.67-.13Z" transform="translate(-1.05 -0.12)" fill="#fff" fill-rule="evenodd"/><path d="M14,.77a.38.38,0,0,0-.34-.16A.28.28,0,0,1,14,.77Z" transform="translate(-1.05 -0.12)" fill="#fff" fill-rule="evenodd"/><path d="M11.32,2.77a.6.6,0,0,1-.24.37L11,3.2l-.08,0,.19-.1A.54.54,0,0,0,11.32,2.77Z" transform="translate(-1.05 -0.12)" fill="#fff" fill-rule="evenodd"/><path d="M9.11,3.45a1.88,1.88,0,0,1-.82-1.24A.23.23,0,0,1,8.4,1.9,14.33,14.33,0,0,1,10,1.49a2.69,2.69,0,0,1,.92-.08.46.46,0,0,1,.34.31,2.33,2.33,0,0,1,0,1,.72.72,0,0,1-.46.52,3,3,0,0,1-.65.24A1.49,1.49,0,0,1,9.11,3.45Z" transform="translate(-1.05 -0.12)" fill-rule="evenodd" fill="url(#New_Gradient_Swatch_1-5)" style="mix-blend-mode:screen"/><path d="M6.83,2.13c.25,0,.35,0,.43.19a2.66,2.66,0,0,1,0,1A.72.72,0,0,1,6.74,4a1.25,1.25,0,0,1-1-.14A1.75,1.75,0,0,1,5.33,3c-.1-.39-.09-.44-.07-.53s.15-.16.25-.19A6.93,6.93,0,0,1,6.83,2.13Z" transform="translate(-1.05 -0.12)" fill-rule="evenodd" fill="url(#linear-gradient)" style="mix-blend-mode:screen"/></g></g></svg>